<svg width="228" height="56" viewBox="0 0 228 56" fill="none" xmlns="http://www.w3.org/2000/svg">
<rect width="228" height="56" rx="28" fill="#0422F5"/>
<rect width="228" height="56" rx="28" fill="url(#paint0_linear_32_360)" fill-opacity="0.2"/>
<path d="M37.2422 37H31.7344V20.0312H37.4062C42.3984 20.0312 45.3984 23.2188 45.3984 28.4922C45.3984 33.7891 42.3984 37 37.2422 37ZM34.3125 34.75H37.1016C40.9453 34.75 42.8438 32.5 42.8438 28.4922C42.8438 24.5078 40.9453 22.2812 37.2422 22.2812H34.3125V34.75ZM62.7829 28.5156C62.7829 33.9297 59.5251 37.2344 55.1423 37.2344C50.7126 37.2344 47.4782 33.9297 47.4782 28.5156C47.4782 23.0781 50.7126 19.7969 55.1423 19.7969C59.5251 19.7969 62.7829 23.0781 62.7829 28.5156ZM60.2282 28.5156C60.2282 24.3906 58.0485 22.1641 55.1423 22.1641C52.2126 22.1641 50.0329 24.3906 50.0329 28.5156C50.0329 32.6406 52.2126 34.8672 55.1423 34.8672C58.0485 34.8672 60.2282 32.6406 60.2282 28.5156ZM68.5423 37L63.8314 20.0312H66.5501L69.8548 33.1562H69.9954L73.4408 20.0312H76.1126L79.5579 33.1562H79.6986L83.0033 20.0312H85.722L81.0111 37H78.4095L74.847 24.3203H74.7064L71.1439 37H68.5423ZM101.255 20.0312V37H98.8877L90.2861 24.6016H90.1455V37H87.5674V20.0312H89.958L98.5596 32.4531H98.7236V20.0312H101.255ZM104.46 37V20.0312H107.038V34.7734H114.702V37H104.46ZM131.149 28.5156C131.149 33.9297 127.891 37.2344 123.508 37.2344C119.078 37.2344 115.844 33.9297 115.844 28.5156C115.844 23.0781 119.078 19.7969 123.508 19.7969C127.891 19.7969 131.149 23.0781 131.149 28.5156ZM128.594 28.5156C128.594 24.3906 126.414 22.1641 123.508 22.1641C120.578 22.1641 118.399 24.3906 118.399 28.5156C118.399 32.6406 120.578 34.8672 123.508 34.8672C126.414 34.8672 128.594 32.6406 128.594 28.5156ZM134.377 37H131.635L137.729 20.0312H140.705L146.822 37H144.08L142.533 32.5234H135.924L134.377 37ZM136.674 30.3672H141.783L139.275 23.125H139.158L136.674 30.3672ZM154.222 37H148.715V20.0312H154.386C159.379 20.0312 162.379 23.2188 162.379 28.4922C162.379 33.7891 159.379 37 154.222 37ZM151.293 34.75H154.082C157.925 34.75 159.824 32.5 159.824 28.4922C159.824 24.5078 157.925 22.2812 154.222 22.2812H151.293V34.75Z" fill="white"/>
<path d="M181 26L186 31L191 26" stroke="white" stroke-width="2" stroke-linecap="round" stroke-linejoin="round"/>
<path d="M186 31V19" stroke="white" stroke-width="2" stroke-linecap="round" stroke-linejoin="round"/>
<path d="M195 31V35C195 35.5304 194.789 36.0391 194.414 36.4142C194.039 36.7893 193.53 37 193 37H179C178.47 37 177.961 36.7893 177.586 36.4142C177.211 36.0391 177 35.5304 177 35V31" stroke="white" stroke-width="2" stroke-linecap="round" stroke-linejoin="round"/>
<defs>
<linearGradient id="paint0_linear_32_360" x1="114" y1="0" x2="114" y2="56" gradientUnits="userSpaceOnUse">
<stop stop-color="#0422F5" stop-opacity="0"/>
<stop offset="0.5" stop-color="#0422F5"/>
<stop offset="1" stop-color="#0422F5" stop-opacity="0"/>
</linearGradient>
</defs>
</svg>
