<svg width="40" height="40" viewBox="0 0 40 40" fill="none" xmlns="http://www.w3.org/2000/svg">
<path d="M30.8979 11.8185C31.3986 15.4867 31.2734 19.2676 30.5974 22.9358C30.5223 23.3365 30.9604 23.6244 31.2984 23.3991C31.7866 23.061 32.3499 22.6729 32.6253 22.4476C34.8409 20.7449 36.8562 18.7668 38.6962 16.6135C39.0843 16.1628 39.2345 15.5493 39.0718 14.9734C37.6323 9.67762 34.0773 5.2457 29.3832 2.64163C29.0077 2.42879 28.5821 2.80438 28.7323 3.20501C29.7462 5.97183 30.5098 8.83881 30.8979 11.8059V11.8185ZM22.6739 12.0939C22.2733 11.7934 21.7476 11.6682 21.2594 11.7559C18.9186 12.1815 16.6279 12.8451 14.4248 13.7465C13.9617 13.9343 13.5862 14.3224 13.4234 14.7981C12.6223 17.0141 12.059 19.3177 11.7461 21.6588C11.6835 22.1596 11.8337 22.6604 12.1592 23.036C13.6988 24.8263 15.4262 26.4664 17.3164 27.8936C17.7169 28.1941 18.2427 28.3192 18.7309 28.2316C21.0716 27.8059 23.3623 27.1424 25.5654 26.241C26.0285 26.0532 26.4041 25.6651 26.5668 25.1894C27.3679 22.9734 27.9312 20.6698 28.2441 18.3286C28.3067 17.8279 28.1565 17.3271 27.8311 16.9515C26.2914 15.1612 24.564 13.5211 22.6739 12.0939ZM18.468 6.18466C21.8978 7.59937 25.1023 9.61502 27.9437 12.0563C28.2567 12.3192 28.7323 12.0939 28.7073 11.6808C28.4319 8.33803 27.6558 5.03286 26.5292 1.81534C26.329 1.25196 25.8783 0.813772 25.3025 0.663537C23.6628 0.225352 21.9478 0 20.1704 0C16.3776 0 12.8226 1.06416 9.79338 2.90454C9.43037 3.12989 9.5305 3.68075 9.95609 3.75587C12.8476 4.25665 15.7142 5.04538 18.4805 6.19718L18.468 6.18466ZM9.10491 28.1941C8.60421 24.5258 8.72939 20.7449 9.40534 17.0767C9.48044 16.6761 9.04232 16.3756 8.70434 16.6135C5.96301 18.5164 3.5096 20.8326 1.30652 23.3991C0.918481 23.8498 0.768268 24.4632 0.930995 25.0266C2.37051 30.3224 5.92546 34.7418 10.6195 37.3459C10.995 37.5587 11.4206 37.1831 11.2704 36.7825C10.2565 34.0156 9.49295 31.1487 9.10491 28.1941ZM32.788 25.5149C29.8339 27.8059 26.4667 29.6088 22.9242 30.8732C22.5362 31.011 22.4986 31.5493 22.8616 31.7246C25.8909 33.1643 29.1579 34.1283 32.5126 34.7668C33.1009 34.8795 33.7143 34.7042 34.1274 34.2786C37.4695 30.9108 39.6476 26.3662 39.9855 21.3333C39.9981 21.0704 40.0106 20.3067 39.9855 19.5931C39.9855 19.1549 39.4473 18.9797 39.1719 19.3052C37.2818 21.5837 35.1663 23.687 32.7755 25.5274L32.788 25.5149ZM21.5348 33.8153C18.105 32.4006 14.9005 30.385 12.059 27.9437C11.7461 27.6808 11.2704 27.9061 11.2955 28.3192C11.5709 31.662 12.3469 34.9671 13.4735 38.1847C13.6738 38.748 14.1244 39.1862 14.7002 39.3365C16.34 39.7746 18.0549 40 19.8324 40C23.6252 40 27.1802 38.9358 30.2094 37.0955C30.5724 36.8701 30.4723 36.3192 30.0467 36.2441C27.1551 35.7433 24.2886 34.9671 21.5223 33.8028L21.5348 33.8153ZM7.20225 14.4851C10.1564 12.1941 13.5236 10.3912 17.0785 9.12676C17.4666 8.98905 17.5041 8.4507 17.1411 8.27543C14.0994 6.83568 10.8448 5.87168 7.49015 5.23318C6.90182 5.1205 6.28848 5.29577 5.86289 5.72144C2.62086 8.98905 0.480357 13.3459 0.0422452 18.1909C0.00469277 18.554 -0.00782319 19.5556 0.0046943 20.3944C0.0046943 20.8326 0.542958 21.0078 0.818342 20.6823C2.70848 18.4038 4.82394 16.3005 7.21478 14.4726L7.20225 14.4851Z" fill="#282832"/>
</svg>
