<svg width="40" height="40" viewBox="0 0 40 40" fill="none" xmlns="http://www.w3.org/2000/svg">
<g clip-path="url(#clip0_17_410)">
<rect x="0.5" y="0.5" width="39" height="39" rx="3.5" stroke="#282832"/>
<path d="M11 11.3333C11 10.1841 11.4741 9.08187 12.318 8.26921C13.1619 7.45655 14.3065 7 15.5 7H20V15.6667H15.5C14.3065 15.6667 13.1619 15.2101 12.318 14.3975C11.4741 13.5848 11 12.4826 11 11.3333Z" stroke="#282832" stroke-linecap="round" stroke-linejoin="round"/>
<path d="M20 7H24.5C25.091 7 25.6761 7.11209 26.2221 7.32986C26.7681 7.54763 27.2641 7.86682 27.682 8.26921C28.0999 8.67159 28.4313 9.1493 28.6575 9.67504C28.8836 10.2008 29 10.7643 29 11.3333C29 11.9024 28.8836 12.4659 28.6575 12.9916C28.4313 13.5174 28.0999 13.9951 27.682 14.3975C27.2641 14.7999 26.7681 15.1191 26.2221 15.3368C25.6761 15.5546 25.091 15.6667 24.5 15.6667H20V7Z" stroke="#282832" stroke-linecap="round" stroke-linejoin="round"/>
<path d="M11 19.9998C11 18.8506 11.4741 17.7484 12.318 16.9357C13.1619 16.1231 14.3065 15.6665 15.5 15.6665H20V24.3332H15.5C14.3065 24.3332 13.1619 23.8766 12.318 23.064C11.4741 22.2513 11 21.1491 11 19.9998Z" stroke="#282832" stroke-linecap="round" stroke-linejoin="round"/>
<path d="M20 19.9998C20 19.4308 20.1164 18.8673 20.3425 18.3415C20.5687 17.8158 20.9002 17.3381 21.318 16.9357C21.7359 16.5333 22.232 16.2141 22.7779 15.9964C23.3239 15.7786 23.9091 15.6665 24.5 15.6665C25.091 15.6665 25.6761 15.7786 26.2221 15.9964C26.7681 16.2141 27.2641 16.5333 27.682 16.9357C28.0999 17.3381 28.4313 17.8158 28.6575 18.3415C28.8836 18.8673 29 19.4308 29 19.9998C29 20.5689 28.8836 21.1324 28.6575 21.6581C28.4313 22.1839 28.0999 22.6616 27.682 23.064C27.2641 23.4664 26.7681 23.7856 26.2221 24.0033C25.6761 24.2211 25.091 24.3332 24.5 24.3332C23.9091 24.3332 23.3239 24.2211 22.7779 24.0033C22.232 23.7856 21.7359 23.4664 21.318 23.064C20.9002 22.6616 20.5687 22.1839 20.3425 21.6581C20.1164 21.1324 20 20.5689 20 19.9998Z" stroke="#282832" stroke-linecap="round" stroke-linejoin="round"/>
<path d="M11 28.6668C11 27.5176 11.4741 26.4154 12.318 25.6027C13.1619 24.79 14.3065 24.3335 15.5 24.3335H20V28.6668C20 29.8161 19.5259 30.9183 18.682 31.731C17.8381 32.5436 16.6935 33.0002 15.5 33.0002C14.3065 33.0002 13.1619 32.5436 12.318 31.731C11.4741 30.9183 11 29.8161 11 28.6668Z" stroke="#282832" stroke-linecap="round" stroke-linejoin="round"/>
</g>
<defs>
<clipPath id="clip0_17_410">
<rect width="40" height="40" fill="white"/>
</clipPath>
</defs>
</svg>
