<svg width="40" height="40" viewBox="0 0 40 40" fill="none" xmlns="http://www.w3.org/2000/svg">
<path fill-rule="evenodd" clip-rule="evenodd" d="M4.16863 1.29032C2.57553 1.29032 1.29032 2.57553 1.29032 4.16863V35.8435C1.29032 37.423 2.57408 38.7097 4.16863 38.7097H35.8314C37.4259 38.7097 38.7097 37.423 38.7097 35.8435V4.16863C38.7097 2.57553 37.4245 1.29032 35.8314 1.29032H4.16863ZM0 4.16863C0 1.8629 1.8629 0 4.16863 0H35.8314C38.1371 0 40 1.8629 40 4.16863V35.8435C40 38.1385 38.1356 40 35.8314 40H4.16863C1.86435 40 0 38.1385 0 35.8435V4.16863Z" fill="#282832"/>
<path d="M29.7117 11.9145C29.7117 12.9029 28.936 13.6161 27.8099 13.6161C26.6839 13.6161 25.9207 12.8904 25.9207 11.9145C25.9207 10.9386 26.7089 10.2129 27.8099 10.2129C28.911 10.2129 29.7117 10.9386 29.7117 11.9145Z" fill="#282832"/>
<path d="M29.3491 15.8433H26.2837V29.431H29.3491V15.8433Z" fill="#282832"/>
<path d="M17.1127 11.4893H13.5093L7.14087 29.4186H10.3814L11.9329 24.8393H18.5391L20.053 29.4186H23.4937L17.1252 11.4893H17.1127ZM12.6711 22.3119L15.1359 14.9175H15.3486L17.7758 22.3119H12.6711Z" fill="#282832"/>
</svg>
