<svg width="40" height="40" viewBox="0 0 40 40" fill="none" xmlns="http://www.w3.org/2000/svg">
<path fill-rule="evenodd" clip-rule="evenodd" d="M4.16863 1.29032C2.57553 1.29032 1.29032 2.57553 1.29032 4.16863V35.8435C1.29032 37.423 2.57409 38.7097 4.16863 38.7097H35.8314C37.4259 38.7097 38.7097 37.423 38.7097 35.8435V4.16863C38.7097 2.57553 37.4245 1.29032 35.8314 1.29032H4.16863ZM0 4.16863C0 1.8629 1.86291 0 4.16863 0H35.8314C38.1371 0 40 1.8629 40 4.16863V35.8435C40 38.1385 38.1356 40 35.8314 40H4.16863C1.86436 40 0 38.1385 0 35.8435V4.16863Z" fill="#282832"/>
<path d="M30.3117 8.70459H27.9345V16.1991C27.3464 14.9479 26.333 14.4099 25.2695 14.4099C22.9798 14.4099 20.7903 16.6746 20.7903 21.917C20.7903 26.784 22.567 29.9495 25.0568 29.9495C26.6208 29.9495 27.4716 29.1488 27.9345 28.1103V29.6617H30.3117C30.2867 28.8109 30.3117 27.4472 30.3117 26.4462V8.70459ZM27.9345 20.303V24.6445C27.9345 24.6445 27.9095 25.2076 27.8094 25.4703C27.2839 27.6098 26.3455 27.9852 25.6073 27.9852C23.9057 27.9852 23.1425 25.0074 23.1425 21.9045C23.1425 18.8016 23.8306 16.4118 25.795 16.4118C26.921 16.4118 27.8094 17.7631 27.9345 19.277C27.9595 19.6148 27.9345 19.9777 27.9345 20.2905V20.303Z" fill="#282832"/>
<path d="M15.0723 19.6521L20.3147 29.649H17.9375L13.8962 21.9043L9.84237 29.649H7.50269L12.7201 19.6521L7.50269 9.65527H9.84237L13.8962 17.3875L17.9375 9.65527H20.3147L15.0723 19.6521Z" fill="#282832"/>
</svg>
