<svg width="41" height="40" viewBox="0 0 41 40" fill="none" xmlns="http://www.w3.org/2000/svg">
<path fill-rule="evenodd" clip-rule="evenodd" d="M4.65651 1.29032C3.07697 1.29032 1.79032 2.57408 1.79032 4.16863V35.8435C1.79032 37.4245 3.07553 38.7097 4.65651 38.7097H36.3314C37.9259 38.7097 39.2097 37.423 39.2097 35.8435V4.16863C39.2097 2.57553 37.9245 1.29032 36.3314 1.29032H4.65651ZM0.5 4.16863C0.5 1.86435 2.36145 0 4.65651 0H36.3314C38.6371 0 40.5 1.86291 40.5 4.16863V35.8435C40.5 38.1386 38.6357 40 36.3314 40H4.65651C2.3629 40 0.5 38.1371 0.5 35.8435V4.16863Z" fill="#282832"/>
<path d="M13.3812 10.7192H10.1782V28.6486H13.3812V10.7192Z" fill="#282832"/>
<path d="M26.7434 9.80566V17.2376H26.5307C25.805 15.7487 24.2661 14.8479 22.4018 14.8479C18.9736 14.8479 16.8091 17.5504 16.8091 21.842C16.8091 26.1335 18.9611 28.8861 22.4018 28.8861C24.2911 28.8861 25.8551 28.0102 26.6308 26.5088H26.8435V28.6608H29.8338V9.80566H26.7559H26.7434ZM23.3527 26.2586C21.2508 26.2586 19.9495 24.607 19.9495 21.8545C19.9495 19.1019 21.2382 17.4503 23.3527 17.4503C25.4672 17.4503 26.7684 19.1394 26.7684 21.8545C26.7684 24.5695 25.4797 26.2586 23.3527 26.2586Z" fill="#282832"/>
</svg>
