<svg width="41" height="40" viewBox="0 0 41 40" fill="none" xmlns="http://www.w3.org/2000/svg">
<path fill-rule="evenodd" clip-rule="evenodd" d="M4.66863 1.29032C3.07553 1.29032 1.79032 2.57553 1.79032 4.16863V35.8314C1.79032 37.4245 3.07553 38.7097 4.66863 38.7097H36.3435C37.923 38.7097 39.2097 37.4259 39.2097 35.8314V4.16863C39.2097 2.57408 37.923 1.29032 36.3435 1.29032H4.66863ZM0.5 4.16863C0.5 1.86291 2.3629 0 4.66863 0H36.3435C38.6385 0 40.5 1.86435 40.5 4.16863V35.8314C40.5 38.1357 38.6385 40 36.3435 40H4.66863C2.3629 40 0.5 38.1371 0.5 35.8314V4.16863Z" fill="#282832"/>
<path d="M33.983 24.5171C33.983 27.132 31.5807 28.8712 28.1775 28.8712C24.7743 28.8712 22.6473 27.4073 22.4221 24.93H25.4625C25.7753 25.9434 26.7136 26.544 28.2651 26.544C29.8166 26.544 30.8926 25.8558 30.8926 24.8549C30.8926 24.0792 30.317 23.6037 29.0283 23.3034L26.6135 22.7404C23.9986 22.1399 22.7724 20.9387 22.7724 18.8868C22.7724 16.4345 24.9995 14.7329 28.215 14.7329C31.4306 14.7329 33.47 16.1592 33.6952 18.6366H30.805C30.5798 17.6732 29.6664 17.0601 28.2276 17.0601C26.7887 17.0601 25.7753 17.7357 25.7753 18.7116C25.7753 19.4874 26.4134 19.9503 27.7897 20.2756L30.1794 20.8261C32.7818 21.4017 33.9955 22.5152 33.9955 24.5171H33.983Z" fill="#282832"/>
<path d="M15.065 10.6665H7.83325V28.5958H11.0363V22.7153H14.9274C18.5558 22.7153 21.0957 20.288 21.0957 16.7347C21.0957 13.1814 18.6434 10.6665 15.0525 10.6665H15.065ZM14.2017 20.0628H11.0237V13.344H14.2142C16.5164 13.344 17.8301 14.5326 17.8301 16.7347C17.8301 18.9368 16.4914 20.0628 14.2017 20.0628Z" fill="#282832"/>
</svg>
