<svg width="37" height="40" viewBox="0 0 37 40" fill="none" xmlns="http://www.w3.org/2000/svg">
<path d="M36.999 37.3919C36.8567 36.8909 36.7143 36.3898 36.6108 36.1518C36.5202 35.9013 36.1968 34.7238 35.718 32.9826C35.3428 31.5921 34.8641 29.8384 34.3077 27.9093C33.7514 25.9426 33.1432 23.788 32.4963 21.6335C31.7588 19.2033 30.6202 16.7606 29.8698 14.5935C29.3134 12.9776 28.6276 11.512 28.123 10.3219C26.8421 7.15269 25.3412 4.0962 23.6333 1.13992C23.2193 0.438431 22.443 0 21.602 0H15.0162C14.3175 0 13.6706 0.375798 13.3342 0.977075C10.9534 5.37391 8.88325 9.89602 7.13653 14.5684C5.97205 17.888 4.18653 22.7859 2.82797 27.3581C2.65977 27.9719 2.47864 28.5607 2.31043 29.1494C2.0646 29.9762 1.83169 30.8029 1.61173 31.5796L1.48234 32.0556C0.861284 34.2352 0.356695 36.1393 0.0461668 37.4796C-0.109097 38.131 0.136726 38.7949 0.641334 39.1958C1.08125 39.3837 1.59881 39.5716 2.19399 39.7219C2.6339 39.8346 3.09966 39.9223 3.61721 39.9724C3.61721 39.9724 3.64309 39.9724 3.65602 39.9724C3.70778 39.9724 3.75954 39.9724 3.82423 39.9724H3.85014L4.1736 39.9975C4.2383 39.9975 4.31593 39.9975 4.38063 39.9975C4.38063 39.9975 4.3806 39.9975 4.39354 39.9975C5.09223 40.01 6.02383 39.9849 7.0848 39.7219C7.26594 39.6843 7.44707 39.6342 7.64115 39.5841C7.96462 39.4964 8.27512 39.3837 8.54684 39.2709L9.15496 38.9076C9.93127 38.4442 10.4359 37.6174 10.4747 36.7155C10.5265 35.3626 10.6041 33.4836 10.7206 33.0702C10.7853 32.7947 10.9793 31.755 11.2381 30.5023L10.6817 30.59C8.77976 30.9031 7.34356 31.2414 5.28631 31.6422C7.34356 31.2539 8.77976 30.9031 10.6817 30.59L11.2381 30.5023C16.75 29.6004 21.5631 28.9991 25.4577 28.5732C26.1305 30.6651 26.6998 32.7947 27.1526 34.9367C27.3208 35.6883 27.4373 36.465 27.4891 37.2291C27.5408 37.9681 27.9548 38.6321 28.5759 39.0454L28.6665 39.1081C28.8735 39.2208 29.2099 39.3837 29.6239 39.534C29.7404 39.5716 29.8439 39.6091 29.9474 39.6342C29.5722 38.5945 29.0546 37.2667 28.4724 35.776C28.7571 36.5025 29.0417 37.204 29.2875 37.8429C29.2875 37.8429 29.2875 37.8679 29.2875 37.8805C29.5463 38.5318 29.7663 39.1206 29.9603 39.6342C30.7625 39.8471 31.5 39.8346 32.768 39.797C33.816 39.7845 34.3465 39.7595 35.0711 39.5966L36.2485 39.2208C36.2485 39.2208 36.2485 39.2208 36.2615 39.2208C36.8437 38.8074 37.1413 38.0684 36.9343 37.3543L36.999 37.3919ZM28.356 15.2699C29.3264 17.3494 30.3097 19.529 31.2801 21.7838C30.3097 19.529 29.3134 17.3368 28.356 15.2699C28.0454 14.606 27.7349 13.9546 27.4373 13.3158C27.7478 13.9546 28.0454 14.606 28.356 15.2699ZM21.5761 17.7252C19.48 18.815 16.5559 20.3557 13.9164 21.8088C14.6927 19.7545 16.0642 16.5226 17.8756 11.5996C18.1991 10.6852 18.8072 10.5975 19.1954 11.4869C19.4671 12.1132 20.4504 14.7188 21.5761 17.7252ZM6.68371 28.1974C6.5802 28.4605 6.47669 28.7235 6.36024 28.9866C6.46375 28.7235 6.5802 28.4479 6.68371 28.1849V28.1974ZM25.5612 28.6108C25.9105 29.4375 26.2469 30.2768 26.5833 31.1036C27.0232 32.2059 27.4761 33.2957 27.8901 34.3229C27.1526 32.5191 26.3505 30.5524 25.5483 28.6233L25.5612 28.6108Z" fill="white"/>
</svg>
