<svg width="40" height="30" viewBox="0 0 40 30" fill="none" xmlns="http://www.w3.org/2000/svg">
<path d="M37.9477 14.6504C36.2018 16.1042 34.2399 17.3704 32.3438 18.6178C31.2925 19.3025 30.5791 19.6402 29.3025 19.7433C27.6598 19.8746 28.3262 18.721 28.9176 17.9613C29.2461 17.5392 30.8795 16.0292 30.1003 15.4664C29.509 15.035 28.2605 16.1698 27.6692 16.3762C25.116 17.2578 23.952 14.5097 23.4826 12.6245C23.1259 11.1613 22.1591 11.6397 21.3049 12.3056C19.972 13.6093 18.1415 14.5472 16.1328 15.2882C15.2222 15.654 15.1002 17.3141 16.4519 17.5111C17.1653 17.6142 18.0571 17.558 18.7798 17.5767C18.5452 17.8487 17.5689 18.646 18.0007 19.1524C18.2636 19.462 19.0521 19.9122 19.3712 20.1466C19.7373 20.4093 20.1128 20.7563 20.5446 20.9157C21.38 21.2159 21.9901 20.3061 21.2861 19.7152C22.1122 19.4807 22.9382 19.2369 23.7642 19.0024C24.4401 18.8054 24.947 19.1149 25.6134 19.34C24.3181 19.4995 22.7129 19.4526 22.0934 20.8595C21.549 21.8161 21.3143 23.5325 19.7936 23.2418C19.0708 23.1011 17.6534 22.4352 17.1841 21.863C16.7429 21.319 17.1278 20.0247 17.0996 19.3588C17.0621 18.6741 16.7429 18.0926 16.1328 17.7737C16.0577 18.8898 15.992 19.9966 15.9169 21.1127C15.8042 22.8854 16.7523 23.2324 18.2166 24.0859C20.4131 25.3709 22.5252 26.759 24.4401 28.4473C24.9564 28.9069 26.186 30.5576 26.937 29.8073C27.3594 29.3852 26.8901 28.7662 26.5521 28.4566L25.3788 27.228C25.2755 27.1436 24.9845 26.8153 25.1441 26.6652C25.36 26.4682 25.8481 27.2467 26.0265 27.3218C26.0734 27.3405 25.9044 26.3369 25.9044 26.3463C25.942 25.7648 26.4395 25.3146 27.0215 25.3334C28.6923 25.399 28.3638 27.0685 28.3638 28.0721C28.3638 26.8716 25.7542 26.834 26.937 28.1846C28.3356 29.7979 29.5371 27.9127 30.0628 26.4307C30.504 25.1739 30.2224 24.8081 31.161 23.9452C32.1279 23.0636 33.0853 22.1819 34.0522 21.3003C35.3382 20.1185 36.643 18.9461 37.8539 17.6799C38.8489 16.6388 39.6937 15.5039 39.9659 14.0501C40.2757 12.39 38.3701 14.2659 37.9477 14.6223V14.6504ZM20.554 19.8559C20.4882 19.9215 20.4038 19.9497 20.3287 19.9497C20.2536 19.9497 20.1597 19.9215 20.094 19.8559C19.8218 19.5745 19.5308 19.3588 19.2398 19.2087C19.0802 19.1243 19.0239 18.9273 19.1084 18.7679C19.1929 18.6084 19.39 18.5522 19.5496 18.6366C19.9063 18.8242 20.2442 19.0868 20.5633 19.4057C20.6854 19.537 20.6854 19.7433 20.5633 19.8653L20.554 19.8559Z" fill="white"/>
<path d="M13.1107 15.7196C15.8516 14.913 19.4468 13.7312 21.3711 11.4896C23.408 9.11662 20.4981 5.03665 18.6583 3.29211C17.9261 2.60743 17.1095 1.7633 16.565 1.7633C16.2084 1.7633 15.9737 2.13847 15.9925 3.18894C16.0206 4.91472 15.495 6.60299 14.9975 8.23498C14.3498 10.3453 12.9699 12.4181 11.3835 13.9188C10.6983 13.6937 10.1163 13.2998 9.72205 12.5963C11.8341 10.0545 13.6364 6.28409 13.4768 2.92632C13.3735 0.722202 12.6038 0 11.2709 0C10.6514 0 9.91918 0.150068 9.06498 0.384549C8.06998 0.656547 7.08436 0.928545 6.08936 1.20054C4.5687 1.61323 5.89223 2.50426 6.28648 3.24522C7.62879 5.72134 6.94357 8.58201 6.4179 11.1801C5.25394 10.6736 4.05241 10.3265 3.00109 10.3265C1.37717 10.3265 0.128736 11.1707 0.00670742 13.628C-0.0590003 15.0349 0.363398 15.4195 1.03925 15.4195C1.54614 15.4195 2.19383 15.2038 2.88845 15.0537C3.27331 14.9693 3.65817 14.9318 4.04303 14.9318C5.23515 14.9318 6.43668 15.2975 7.488 15.7946C10.4542 17.1922 12.1063 19.415 13.8147 22.1163C14.1808 22.6978 14.453 22.9322 14.6501 22.9322C15.2227 22.9322 15.1383 20.9345 14.9787 20.1185C14.6783 18.5521 13.7678 17.1546 13.0919 15.729L13.1107 15.7196Z" fill="white"/>
</svg>
