<svg width="375" height="200" viewBox="0 0 375 200" fill="none" xmlns="http://www.w3.org/2000/svg">
<path d="M375 0L352.258 0V99.6207L331.843 0H309.371V200H331.843V97.1797L352.5 200H375V0Z" fill="#23233C"/>
<path d="M375 0L352.258 0V99.6207L331.843 0H309.371V200H331.843V97.1797L352.5 200H375V0Z" fill="black" fill-opacity="0.2"/>
<path d="M375 0L352.258 0V99.6207L331.843 0H309.371V200H331.843V97.1797L352.5 200H375V0Z" fill="black" fill-opacity="0.2"/>
<path d="M375 0L352.258 0V99.6207L331.843 0H309.371V200H331.843V97.1797L352.5 200H375V0Z" fill="black" fill-opacity="0.2"/>
<path d="M192.445 117.164C188.897 108.039 184.555 99.8791 179.41 92.6789L169.66 78.5139C166.263 73.5567 163.518 68.788 161.433 64.2253C159.348 59.6626 158.298 53.7811 158.298 46.5808C158.298 43.2192 158.853 39.8575 159.971 36.4958C161.088 33.1341 162.858 31.4562 165.288 31.4562C167.515 31.4562 169.165 32.616 170.238 34.9356C171.31 37.2553 172.008 40.5404 172.353 44.7793C172.683 49.0182 172.908 54.0166 173.005 59.7803H195.467C195.37 54.0166 194.92 43.4193 194.192 37.0904C193.465 30.7733 192.107 24.7681 190.112 19.0868C188.125 13.4055 185.207 8.80161 181.382 5.28097C177.543 1.76032 172.473 0 166.165 0C155.966 0 147.911 4.36254 141.994 13.0876C136.069 21.8127 133.114 34.4175 133.114 50.8963C133.114 62.5827 134.636 72.3852 137.696 80.3095C140.756 88.2281 144.513 95.3165 148.983 101.557L159.176 116.205C163.15 121.81 166.315 127.367 168.64 132.89C170.973 138.412 172.135 145.177 172.135 153.177C172.135 156.539 171.723 159.742 170.898 162.78C170.065 165.824 168.295 167.342 165.58 167.342C163.45 167.342 161.628 166.224 160.121 163.981C158.621 161.744 157.451 158.064 156.626 152.936C155.956 148.819 155.801 147.414 155.263 142.553L155.263 142.55C155.132 141.365 154.978 139.974 154.788 138.288H132.964C133.256 152.695 134.659 164.422 137.186 173.459C139.714 182.502 143.448 189.185 148.398 193.506C153.356 197.827 159.513 199.988 166.893 199.988C173.2 199.988 178.66 197.827 183.272 193.506C187.885 189.185 191.447 183.303 193.975 175.862C196.502 168.414 197.77 160.136 197.77 151.011C197.77 137.564 195.992 126.284 192.452 117.159L192.445 117.164Z" fill="#23233C"/>
<path d="M192.445 117.164C188.897 108.039 184.555 99.8791 179.41 92.6789L169.66 78.5139C166.263 73.5567 163.518 68.788 161.433 64.2253C159.348 59.6626 158.298 53.7811 158.298 46.5808C158.298 43.2192 158.853 39.8575 159.971 36.4958C161.088 33.1341 162.858 31.4562 165.288 31.4562C167.515 31.4562 169.165 32.616 170.238 34.9356C171.31 37.2553 172.008 40.5404 172.353 44.7793C172.683 49.0182 172.908 54.0166 173.005 59.7803H195.467C195.37 54.0166 194.92 43.4193 194.192 37.0904C193.465 30.7733 192.107 24.7681 190.112 19.0868C188.125 13.4055 185.207 8.80161 181.382 5.28097C177.543 1.76032 172.473 0 166.165 0C155.966 0 147.911 4.36254 141.994 13.0876C136.069 21.8127 133.114 34.4175 133.114 50.8963C133.114 62.5827 134.636 72.3852 137.696 80.3095C140.756 88.2281 144.513 95.3165 148.983 101.557L159.176 116.205C163.15 121.81 166.315 127.367 168.64 132.89C170.973 138.412 172.135 145.177 172.135 153.177C172.135 156.539 171.723 159.742 170.898 162.78C170.065 165.824 168.295 167.342 165.58 167.342C163.45 167.342 161.628 166.224 160.121 163.981C158.621 161.744 157.451 158.064 156.626 152.936C155.956 148.819 155.801 147.414 155.263 142.553L155.263 142.55C155.132 141.365 154.978 139.974 154.788 138.288H132.964C133.256 152.695 134.659 164.422 137.186 173.459C139.714 182.502 143.448 189.185 148.398 193.506C153.356 197.827 159.513 199.988 166.893 199.988C173.2 199.988 178.66 197.827 183.272 193.506C187.885 189.185 191.447 183.303 193.975 175.862C196.502 168.414 197.77 160.136 197.77 151.011C197.77 137.564 195.992 126.284 192.452 117.159L192.445 117.164Z" fill="black" fill-opacity="0.2"/>
<path d="M192.445 117.164C188.897 108.039 184.555 99.8791 179.41 92.6789L169.66 78.5139C166.263 73.5567 163.518 68.788 161.433 64.2253C159.348 59.6626 158.298 53.7811 158.298 46.5808C158.298 43.2192 158.853 39.8575 159.971 36.4958C161.088 33.1341 162.858 31.4562 165.288 31.4562C167.515 31.4562 169.165 32.616 170.238 34.9356C171.31 37.2553 172.008 40.5404 172.353 44.7793C172.683 49.0182 172.908 54.0166 173.005 59.7803H195.467C195.37 54.0166 194.92 43.4193 194.192 37.0904C193.465 30.7733 192.107 24.7681 190.112 19.0868C188.125 13.4055 185.207 8.80161 181.382 5.28097C177.543 1.76032 172.473 0 166.165 0C155.966 0 147.911 4.36254 141.994 13.0876C136.069 21.8127 133.114 34.4175 133.114 50.8963C133.114 62.5827 134.636 72.3852 137.696 80.3095C140.756 88.2281 144.513 95.3165 148.983 101.557L159.176 116.205C163.15 121.81 166.315 127.367 168.64 132.89C170.973 138.412 172.135 145.177 172.135 153.177C172.135 156.539 171.723 159.742 170.898 162.78C170.065 165.824 168.295 167.342 165.58 167.342C163.45 167.342 161.628 166.224 160.121 163.981C158.621 161.744 157.451 158.064 156.626 152.936C155.956 148.819 155.801 147.414 155.263 142.553L155.263 142.55C155.132 141.365 154.978 139.974 154.788 138.288H132.964C133.256 152.695 134.659 164.422 137.186 173.459C139.714 182.502 143.448 189.185 148.398 193.506C153.356 197.827 159.513 199.988 166.893 199.988C173.2 199.988 178.66 197.827 183.272 193.506C187.885 189.185 191.447 183.303 193.975 175.862C196.502 168.414 197.77 160.136 197.77 151.011C197.77 137.564 195.992 126.284 192.452 117.159L192.445 117.164Z" fill="black" fill-opacity="0.2"/>
<path d="M192.445 117.164C188.897 108.039 184.555 99.8791 179.41 92.6789L169.66 78.5139C166.263 73.5567 163.518 68.788 161.433 64.2253C159.348 59.6626 158.298 53.7811 158.298 46.5808C158.298 43.2192 158.853 39.8575 159.971 36.4958C161.088 33.1341 162.858 31.4562 165.288 31.4562C167.515 31.4562 169.165 32.616 170.238 34.9356C171.31 37.2553 172.008 40.5404 172.353 44.7793C172.683 49.0182 172.908 54.0166 173.005 59.7803H195.467C195.37 54.0166 194.92 43.4193 194.192 37.0904C193.465 30.7733 192.107 24.7681 190.112 19.0868C188.125 13.4055 185.207 8.80161 181.382 5.28097C177.543 1.76032 172.473 0 166.165 0C155.966 0 147.911 4.36254 141.994 13.0876C136.069 21.8127 133.114 34.4175 133.114 50.8963C133.114 62.5827 134.636 72.3852 137.696 80.3095C140.756 88.2281 144.513 95.3165 148.983 101.557L159.176 116.205C163.15 121.81 166.315 127.367 168.64 132.89C170.973 138.412 172.135 145.177 172.135 153.177C172.135 156.539 171.723 159.742 170.898 162.78C170.065 165.824 168.295 167.342 165.58 167.342C163.45 167.342 161.628 166.224 160.121 163.981C158.621 161.744 157.451 158.064 156.626 152.936C155.956 148.819 155.801 147.414 155.263 142.553L155.263 142.55C155.132 141.365 154.978 139.974 154.788 138.288H132.964C133.256 152.695 134.659 164.422 137.186 173.459C139.714 182.502 143.448 189.185 148.398 193.506C153.356 197.827 159.513 199.988 166.893 199.988C173.2 199.988 178.66 197.827 183.272 193.506C187.885 189.185 191.447 183.303 193.975 175.862C196.502 168.414 197.77 160.136 197.77 151.011C197.77 137.564 195.992 126.284 192.452 117.159L192.445 117.164Z" fill="black" fill-opacity="0.2"/>
<path d="M100.775 110.235V169.91H127.707V200H74.7057V0.00615727H127.707V30.0906H100.775V79.6563H127.707V110.235H100.775Z" fill="#23233C"/>
<path d="M100.775 110.235V169.91H127.707V200H74.7057V0.00615727H127.707V30.0906H100.775V79.6563H127.707V110.235H100.775Z" fill="black" fill-opacity="0.2"/>
<path d="M100.775 110.235V169.91H127.707V200H74.7057V0.00615727H127.707V30.0906H100.775V79.6563H127.707V110.235H100.775Z" fill="black" fill-opacity="0.2"/>
<path d="M100.775 110.235V169.91H127.707V200H74.7057V0.00615727H127.707V30.0906H100.775V79.6563H127.707V110.235H100.775Z" fill="black" fill-opacity="0.2"/>
<path fill-rule="evenodd" clip-rule="evenodd" d="M53.871 6.54147C59.6009 10.8981 63.6357 17.7275 65.9607 27.0118H65.9682C68.3006 36.3021 69.4631 48.3418 69.4631 63.1367V135.634C69.4631 150.594 68.3006 162.804 65.9682 172.253C63.6432 181.708 59.6383 188.649 53.9535 193.089C48.2687 197.528 40.3127 200 30.113 200H0V0.00649478H29.8567C40.1389 0.00649478 48.1562 2.18482 53.871 6.54147ZM42.0138 157.34C42.4488 153.396 42.6663 148.456 42.6663 142.54L42.6738 142.534V55.489C42.6738 49.5722 42.4038 44.8035 41.8713 41.1886C41.3389 37.5738 40.1989 34.9421 38.4514 33.2995C36.704 31.657 33.8841 30.8327 30.0067 30.8327H26.0768V169.174H30.1492C34.1316 169.174 36.989 168.185 38.7364 166.213C40.4839 164.246 41.5788 161.285 42.0138 157.34Z" fill="#23233C"/>
<path fill-rule="evenodd" clip-rule="evenodd" d="M53.871 6.54147C59.6009 10.8981 63.6357 17.7275 65.9607 27.0118H65.9682C68.3006 36.3021 69.4631 48.3418 69.4631 63.1367V135.634C69.4631 150.594 68.3006 162.804 65.9682 172.253C63.6432 181.708 59.6383 188.649 53.9535 193.089C48.2687 197.528 40.3127 200 30.113 200H0V0.00649478H29.8567C40.1389 0.00649478 48.1562 2.18482 53.871 6.54147ZM42.0138 157.34C42.4488 153.396 42.6663 148.456 42.6663 142.54L42.6738 142.534V55.489C42.6738 49.5722 42.4038 44.8035 41.8713 41.1886C41.3389 37.5738 40.1989 34.9421 38.4514 33.2995C36.704 31.657 33.8841 30.8327 30.0067 30.8327H26.0768V169.174H30.1492C34.1316 169.174 36.989 168.185 38.7364 166.213C40.4839 164.246 41.5788 161.285 42.0138 157.34Z" fill="black" fill-opacity="0.2"/>
<path fill-rule="evenodd" clip-rule="evenodd" d="M53.871 6.54147C59.6009 10.8981 63.6357 17.7275 65.9607 27.0118H65.9682C68.3006 36.3021 69.4631 48.3418 69.4631 63.1367V135.634C69.4631 150.594 68.3006 162.804 65.9682 172.253C63.6432 181.708 59.6383 188.649 53.9535 193.089C48.2687 197.528 40.3127 200 30.113 200H0V0.00649478H29.8567C40.1389 0.00649478 48.1562 2.18482 53.871 6.54147ZM42.0138 157.34C42.4488 153.396 42.6663 148.456 42.6663 142.54L42.6738 142.534V55.489C42.6738 49.5722 42.4038 44.8035 41.8713 41.1886C41.3389 37.5738 40.1989 34.9421 38.4514 33.2995C36.704 31.657 33.8841 30.8327 30.0067 30.8327H26.0768V169.174H30.1492C34.1316 169.174 36.989 168.185 38.7364 166.213C40.4839 164.246 41.5788 161.285 42.0138 157.34Z" fill="black" fill-opacity="0.2"/>
<path fill-rule="evenodd" clip-rule="evenodd" d="M53.871 6.54147C59.6009 10.8981 63.6357 17.7275 65.9607 27.0118H65.9682C68.3006 36.3021 69.4631 48.3418 69.4631 63.1367V135.634C69.4631 150.594 68.3006 162.804 65.9682 172.253C63.6432 181.708 59.6383 188.649 53.9535 193.089C48.2687 197.528 40.3127 200 30.113 200H0V0.00649478H29.8567C40.1389 0.00649478 48.1562 2.18482 53.871 6.54147ZM42.0138 157.34C42.4488 153.396 42.6663 148.456 42.6663 142.54L42.6738 142.534V55.489C42.6738 49.5722 42.4038 44.8035 41.8713 41.1886C41.3389 37.5738 40.1989 34.9421 38.4514 33.2995C36.704 31.657 33.8841 30.8327 30.0067 30.8327H26.0768V169.174H30.1492C34.1316 169.174 36.989 168.185 38.7364 166.213C40.4839 164.246 41.5788 161.285 42.0138 157.34Z" fill="black" fill-opacity="0.2"/>
<path d="M203.012 200V0.00615727H229.081V200H203.012Z" fill="#23233C"/>
<path d="M203.012 200V0.00615727H229.081V200H203.012Z" fill="black" fill-opacity="0.2"/>
<path d="M203.012 200V0.00615727H229.081V200H203.012Z" fill="black" fill-opacity="0.2"/>
<path d="M203.012 200V0.00615727H229.081V200H203.012Z" fill="black" fill-opacity="0.2"/>
<path d="M270.3 96.2823V121.486H280.927V144.294C280.927 148.621 280.635 152.701 280.05 156.539C279.472 160.378 278.452 163.504 276.99 165.906C275.535 168.302 273.45 169.509 270.735 169.509C268.02 169.509 266.1 168.35 264.69 166.03C263.28 163.71 262.313 160.666 261.78 156.904C261.24 153.142 260.97 149.104 260.97 144.776V54.7469C260.97 50.7435 261.143 46.9049 261.48 43.2194C261.818 39.5398 262.62 36.4607 263.888 33.9763C265.148 31.4977 267.18 30.2554 270.007 30.2554C272.835 30.2554 274.687 31.3328 275.902 33.4994C277.117 35.66 277.89 38.5036 278.235 42.0243C278.565 45.5449 278.737 49.3835 278.737 53.5459V69.3947H304.372V56.9076C304.222 45.5449 303.157 35.6247 301.027 27.1351C298.889 18.6573 295.319 12.0105 290.324 7.20641C285.315 2.4082 278.452 0.00615727 269.715 0.00615727C260.978 0.00615727 253.718 2.76733 248.528 8.28968C243.338 13.8061 239.671 21.6128 237.541 31.6978C235.403 41.7829 234.331 53.7048 234.331 67.4695V132.772C234.331 146.054 235.328 157.782 237.316 167.943C239.311 178.111 242.656 185.994 247.366 191.593C252.075 197.198 258.503 200 266.655 200C271.8 200 275.88 198.198 278.887 194.595C281.895 190.992 284.175 186.477 285.727 181.031V200H304.364V96.2823H270.3Z" fill="#23233C"/>
<path d="M270.3 96.2823V121.486H280.927V144.294C280.927 148.621 280.635 152.701 280.05 156.539C279.472 160.378 278.452 163.504 276.99 165.906C275.535 168.302 273.45 169.509 270.735 169.509C268.02 169.509 266.1 168.35 264.69 166.03C263.28 163.71 262.313 160.666 261.78 156.904C261.24 153.142 260.97 149.104 260.97 144.776V54.7469C260.97 50.7435 261.143 46.9049 261.48 43.2194C261.818 39.5398 262.62 36.4607 263.888 33.9763C265.148 31.4977 267.18 30.2554 270.007 30.2554C272.835 30.2554 274.687 31.3328 275.902 33.4994C277.117 35.66 277.89 38.5036 278.235 42.0243C278.565 45.5449 278.737 49.3835 278.737 53.5459V69.3947H304.372V56.9076C304.222 45.5449 303.157 35.6247 301.027 27.1351C298.889 18.6573 295.319 12.0105 290.324 7.20641C285.315 2.4082 278.452 0.00615727 269.715 0.00615727C260.978 0.00615727 253.718 2.76733 248.528 8.28968C243.338 13.8061 239.671 21.6128 237.541 31.6978C235.403 41.7829 234.331 53.7048 234.331 67.4695V132.772C234.331 146.054 235.328 157.782 237.316 167.943C239.311 178.111 242.656 185.994 247.366 191.593C252.075 197.198 258.503 200 266.655 200C271.8 200 275.88 198.198 278.887 194.595C281.895 190.992 284.175 186.477 285.727 181.031V200H304.364V96.2823H270.3Z" fill="black" fill-opacity="0.2"/>
<path d="M270.3 96.2823V121.486H280.927V144.294C280.927 148.621 280.635 152.701 280.05 156.539C279.472 160.378 278.452 163.504 276.99 165.906C275.535 168.302 273.45 169.509 270.735 169.509C268.02 169.509 266.1 168.35 264.69 166.03C263.28 163.71 262.313 160.666 261.78 156.904C261.24 153.142 260.97 149.104 260.97 144.776V54.7469C260.97 50.7435 261.143 46.9049 261.48 43.2194C261.818 39.5398 262.62 36.4607 263.888 33.9763C265.148 31.4977 267.18 30.2554 270.007 30.2554C272.835 30.2554 274.687 31.3328 275.902 33.4994C277.117 35.66 277.89 38.5036 278.235 42.0243C278.565 45.5449 278.737 49.3835 278.737 53.5459V69.3947H304.372V56.9076C304.222 45.5449 303.157 35.6247 301.027 27.1351C298.889 18.6573 295.319 12.0105 290.324 7.20641C285.315 2.4082 278.452 0.00615727 269.715 0.00615727C260.978 0.00615727 253.718 2.76733 248.528 8.28968C243.338 13.8061 239.671 21.6128 237.541 31.6978C235.403 41.7829 234.331 53.7048 234.331 67.4695V132.772C234.331 146.054 235.328 157.782 237.316 167.943C239.311 178.111 242.656 185.994 247.366 191.593C252.075 197.198 258.503 200 266.655 200C271.8 200 275.88 198.198 278.887 194.595C281.895 190.992 284.175 186.477 285.727 181.031V200H304.364V96.2823H270.3Z" fill="black" fill-opacity="0.2"/>
<path d="M270.3 96.2823V121.486H280.927V144.294C280.927 148.621 280.635 152.701 280.05 156.539C279.472 160.378 278.452 163.504 276.99 165.906C275.535 168.302 273.45 169.509 270.735 169.509C268.02 169.509 266.1 168.35 264.69 166.03C263.28 163.71 262.313 160.666 261.78 156.904C261.24 153.142 260.97 149.104 260.97 144.776V54.7469C260.97 50.7435 261.143 46.9049 261.48 43.2194C261.818 39.5398 262.62 36.4607 263.888 33.9763C265.148 31.4977 267.18 30.2554 270.007 30.2554C272.835 30.2554 274.687 31.3328 275.902 33.4994C277.117 35.66 277.89 38.5036 278.235 42.0243C278.565 45.5449 278.737 49.3835 278.737 53.5459V69.3947H304.372V56.9076C304.222 45.5449 303.157 35.6247 301.027 27.1351C298.889 18.6573 295.319 12.0105 290.324 7.20641C285.315 2.4082 278.452 0.00615727 269.715 0.00615727C260.978 0.00615727 253.718 2.76733 248.528 8.28968C243.338 13.8061 239.671 21.6128 237.541 31.6978C235.403 41.7829 234.331 53.7048 234.331 67.4695V132.772C234.331 146.054 235.328 157.782 237.316 167.943C239.311 178.111 242.656 185.994 247.366 191.593C252.075 197.198 258.503 200 266.655 200C271.8 200 275.88 198.198 278.887 194.595C281.895 190.992 284.175 186.477 285.727 181.031V200H304.364V96.2823H270.3Z" fill="black" fill-opacity="0.2"/>
</svg>
