<svg width="350" height="200" viewBox="0 0 350 200" fill="none" xmlns="http://www.w3.org/2000/svg">
<path d="M-2.76918e-06 200H23.2296L23.2296 110.868H47.2553V80.0685H23.2296V29.811H47.2553V0H5.05158e-05L-2.76918e-06 200Z" fill="#23233C"/>
<path d="M-2.76918e-06 200H23.2296L23.2296 110.868H47.2553V80.0685H23.2296V29.811H47.2553V0H5.05158e-05L-2.76918e-06 200Z" fill="black" fill-opacity="0.2"/>
<path d="M-2.76918e-06 200H23.2296L23.2296 110.868H47.2553V80.0685H23.2296V29.811H47.2553V0H5.05158e-05L-2.76918e-06 200Z" fill="black" fill-opacity="0.2"/>
<path d="M-2.76918e-06 200H23.2296L23.2296 110.868H47.2553V80.0685H23.2296V29.811H47.2553V0H5.05158e-05L-2.76918e-06 200Z" fill="black" fill-opacity="0.2"/>
<path fill-rule="evenodd" clip-rule="evenodd" d="M116.451 7.68491C122.237 12.7274 126.384 19.9646 128.867 29.4024C131.358 38.8401 132.604 50.2725 132.604 63.7114V135.936C132.604 149.21 131.358 160.649 128.867 170.245C126.384 179.842 122.237 187.203 116.451 192.322C110.665 197.441 102.688 200 92.8308 200C82.9731 200 75.1805 197.441 69.4532 192.322C63.7176 187.203 59.6039 179.842 57.1124 170.245C54.6291 160.649 53.3834 149.21 53.3834 135.936V63.7114C53.3834 50.2784 54.6291 38.8401 57.1124 29.4024C59.6039 19.9646 63.7176 12.7274 69.4532 7.68491C75.1889 2.6483 82.8728 0.129996 92.8308 0.129996C102.789 0.129996 110.665 2.6483 116.451 7.68491ZM102.254 157.53C102.68 154.017 102.898 150.416 102.898 146.733V53.1557C102.898 49.3194 102.68 45.6772 102.254 42.241C101.81 38.8048 100.899 35.9629 99.4862 33.7211C98.0816 31.4853 95.8575 30.3614 92.8308 30.3614C90.0215 30.3614 87.9145 31.4853 86.5014 33.7211C85.0968 35.9629 84.1688 38.8048 83.7424 42.241C83.316 45.6772 83.0901 49.3194 83.0901 53.1557V146.733C83.0901 150.416 83.2825 154.017 83.6588 157.53C84.035 161.049 84.9045 163.926 86.2589 166.168C87.6134 168.409 89.7957 169.527 92.8308 169.527C95.8658 169.527 98.0816 168.409 99.4862 166.168C100.899 163.932 101.819 161.055 102.254 157.53Z" fill="#23233C"/>
<path fill-rule="evenodd" clip-rule="evenodd" d="M116.451 7.68491C122.237 12.7274 126.384 19.9646 128.867 29.4024C131.358 38.8401 132.604 50.2725 132.604 63.7114V135.936C132.604 149.21 131.358 160.649 128.867 170.245C126.384 179.842 122.237 187.203 116.451 192.322C110.665 197.441 102.688 200 92.8308 200C82.9731 200 75.1805 197.441 69.4532 192.322C63.7176 187.203 59.6039 179.842 57.1124 170.245C54.6291 160.649 53.3834 149.21 53.3834 135.936V63.7114C53.3834 50.2784 54.6291 38.8401 57.1124 29.4024C59.6039 19.9646 63.7176 12.7274 69.4532 7.68491C75.1889 2.6483 82.8728 0.129996 92.8308 0.129996C102.789 0.129996 110.665 2.6483 116.451 7.68491ZM102.254 157.53C102.68 154.017 102.898 150.416 102.898 146.733V53.1557C102.898 49.3194 102.68 45.6772 102.254 42.241C101.81 38.8048 100.899 35.9629 99.4862 33.7211C98.0816 31.4853 95.8575 30.3614 92.8308 30.3614C90.0215 30.3614 87.9145 31.4853 86.5014 33.7211C85.0968 35.9629 84.1688 38.8048 83.7424 42.241C83.316 45.6772 83.0901 49.3194 83.0901 53.1557V146.733C83.0901 150.416 83.2825 154.017 83.6588 157.53C84.035 161.049 84.9045 163.926 86.2589 166.168C87.6134 168.409 89.7957 169.527 92.8308 169.527C95.8658 169.527 98.0816 168.409 99.4862 166.168C100.899 163.932 101.819 161.055 102.254 157.53Z" fill="black" fill-opacity="0.2"/>
<path fill-rule="evenodd" clip-rule="evenodd" d="M116.451 7.68491C122.237 12.7274 126.384 19.9646 128.867 29.4024C131.358 38.8401 132.604 50.2725 132.604 63.7114V135.936C132.604 149.21 131.358 160.649 128.867 170.245C126.384 179.842 122.237 187.203 116.451 192.322C110.665 197.441 102.688 200 92.8308 200C82.9731 200 75.1805 197.441 69.4532 192.322C63.7176 187.203 59.6039 179.842 57.1124 170.245C54.6291 160.649 53.3834 149.21 53.3834 135.936V63.7114C53.3834 50.2784 54.6291 38.8401 57.1124 29.4024C59.6039 19.9646 63.7176 12.7274 69.4532 7.68491C75.1889 2.6483 82.8728 0.129996 92.8308 0.129996C102.789 0.129996 110.665 2.6483 116.451 7.68491ZM102.254 157.53C102.68 154.017 102.898 150.416 102.898 146.733V53.1557C102.898 49.3194 102.68 45.6772 102.254 42.241C101.81 38.8048 100.899 35.9629 99.4862 33.7211C98.0816 31.4853 95.8575 30.3614 92.8308 30.3614C90.0215 30.3614 87.9145 31.4853 86.5014 33.7211C85.0968 35.9629 84.1688 38.8048 83.7424 42.241C83.316 45.6772 83.0901 49.3194 83.0901 53.1557V146.733C83.0901 150.416 83.2825 154.017 83.6588 157.53C84.035 161.049 84.9045 163.926 86.2589 166.168C87.6134 168.409 89.7957 169.527 92.8308 169.527C95.8658 169.527 98.0816 168.409 99.4862 166.168C100.899 163.932 101.819 161.055 102.254 157.53Z" fill="black" fill-opacity="0.2"/>
<path fill-rule="evenodd" clip-rule="evenodd" d="M116.451 7.68491C122.237 12.7274 126.384 19.9646 128.867 29.4024C131.358 38.8401 132.604 50.2725 132.604 63.7114V135.936C132.604 149.21 131.358 160.649 128.867 170.245C126.384 179.842 122.237 187.203 116.451 192.322C110.665 197.441 102.688 200 92.8308 200C82.9731 200 75.1805 197.441 69.4532 192.322C63.7176 187.203 59.6039 179.842 57.1124 170.245C54.6291 160.649 53.3834 149.21 53.3834 135.936V63.7114C53.3834 50.2784 54.6291 38.8401 57.1124 29.4024C59.6039 19.9646 63.7176 12.7274 69.4532 7.68491C75.1889 2.6483 82.8728 0.129996 92.8308 0.129996C102.789 0.129996 110.665 2.6483 116.451 7.68491ZM102.254 157.53C102.68 154.017 102.898 150.416 102.898 146.733V53.1557C102.898 49.3194 102.68 45.6772 102.254 42.241C101.81 38.8048 100.899 35.9629 99.4862 33.7211C98.0816 31.4853 95.8575 30.3614 92.8308 30.3614C90.0215 30.3614 87.9145 31.4853 86.5014 33.7211C85.0968 35.9629 84.1688 38.8048 83.7424 42.241C83.316 45.6772 83.0901 49.3194 83.0901 53.1557V146.733C83.0901 150.416 83.2825 154.017 83.6588 157.53C84.035 161.049 84.9045 163.926 86.2589 166.168C87.6134 168.409 89.7957 169.527 92.8308 169.527C95.8658 169.527 98.0816 168.409 99.4862 166.168C100.899 163.932 101.819 161.055 102.254 157.53Z" fill="black" fill-opacity="0.2"/>
<path d="M167.52 169.933V0.129996H138.457V199.753H197.712V169.933H167.52Z" fill="#23233C"/>
<path d="M167.52 169.933V0.129996H138.457V199.753H197.712V169.933H167.52Z" fill="black" fill-opacity="0.2"/>
<path d="M167.52 169.933V0.129996H138.457V199.753H197.712V169.933H167.52Z" fill="black" fill-opacity="0.2"/>
<path d="M167.52 169.933V0.129996H138.457V199.753H197.712V169.933H167.52Z" fill="black" fill-opacity="0.2"/>
<path d="M203.572 199.753V0.129996H232.627V199.753H203.572Z" fill="#23233C"/>
<path d="M203.572 199.753V0.129996H232.627V199.753H203.572Z" fill="black" fill-opacity="0.2"/>
<path d="M203.572 199.753V0.129996H232.627V199.753H203.572Z" fill="black" fill-opacity="0.2"/>
<path d="M203.572 199.753V0.129996H232.627V199.753H203.572Z" fill="black" fill-opacity="0.2"/>
<path fill-rule="evenodd" clip-rule="evenodd" d="M313.964 29.4024C311.472 19.9705 307.334 12.7274 301.539 7.6908C295.754 2.6483 287.877 0.129996 277.928 0.129996C267.978 0.129996 260.286 2.6483 254.542 7.6908C248.806 12.7274 244.692 19.9705 242.209 29.4024C239.717 38.846 238.48 50.2784 238.48 63.7172V135.936C238.48 149.216 239.717 160.649 242.209 170.245C244.692 179.842 248.806 187.203 254.542 192.322C260.277 197.441 268.07 200 277.928 200C287.786 200 295.754 197.441 301.539 192.322C307.334 187.203 311.472 179.842 313.964 170.245C316.447 160.649 317.693 149.216 317.693 135.936V63.7172C317.693 50.2784 316.447 38.846 313.964 29.4024ZM287.986 146.733C287.986 150.416 287.76 154.017 287.334 157.536C286.899 161.055 285.98 163.938 284.575 166.174C283.162 168.415 280.946 169.533 277.919 169.533C274.893 169.533 272.694 168.415 271.339 166.174C269.985 163.938 269.115 161.055 268.747 157.536C268.371 154.017 268.179 150.416 268.179 146.733V53.1557C268.179 49.3194 268.396 45.6831 268.831 42.241C269.257 38.8048 270.177 35.9688 271.59 33.727C272.995 31.4853 275.11 30.3673 277.919 30.3673C280.938 30.3673 283.162 31.4853 284.575 33.727C285.98 35.9688 286.891 38.8048 287.334 42.241C287.76 45.6831 287.986 49.3194 287.986 53.1557V146.733Z" fill="#23233C"/>
<path fill-rule="evenodd" clip-rule="evenodd" d="M313.964 29.4024C311.472 19.9705 307.334 12.7274 301.539 7.6908C295.754 2.6483 287.877 0.129996 277.928 0.129996C267.978 0.129996 260.286 2.6483 254.542 7.6908C248.806 12.7274 244.692 19.9705 242.209 29.4024C239.717 38.846 238.48 50.2784 238.48 63.7172V135.936C238.48 149.216 239.717 160.649 242.209 170.245C244.692 179.842 248.806 187.203 254.542 192.322C260.277 197.441 268.07 200 277.928 200C287.786 200 295.754 197.441 301.539 192.322C307.334 187.203 311.472 179.842 313.964 170.245C316.447 160.649 317.693 149.216 317.693 135.936V63.7172C317.693 50.2784 316.447 38.846 313.964 29.4024ZM287.986 146.733C287.986 150.416 287.76 154.017 287.334 157.536C286.899 161.055 285.98 163.938 284.575 166.174C283.162 168.415 280.946 169.533 277.919 169.533C274.893 169.533 272.694 168.415 271.339 166.174C269.985 163.938 269.115 161.055 268.747 157.536C268.371 154.017 268.179 150.416 268.179 146.733V53.1557C268.179 49.3194 268.396 45.6831 268.831 42.241C269.257 38.8048 270.177 35.9688 271.59 33.727C272.995 31.4853 275.11 30.3673 277.919 30.3673C280.938 30.3673 283.162 31.4853 284.575 33.727C285.98 35.9688 286.891 38.8048 287.334 42.241C287.76 45.6831 287.986 49.3194 287.986 53.1557V146.733Z" fill="black" fill-opacity="0.2"/>
<path fill-rule="evenodd" clip-rule="evenodd" d="M313.964 29.4024C311.472 19.9705 307.334 12.7274 301.539 7.6908C295.754 2.6483 287.877 0.129996 277.928 0.129996C267.978 0.129996 260.286 2.6483 254.542 7.6908C248.806 12.7274 244.692 19.9705 242.209 29.4024C239.717 38.846 238.48 50.2784 238.48 63.7172V135.936C238.48 149.216 239.717 160.649 242.209 170.245C244.692 179.842 248.806 187.203 254.542 192.322C260.277 197.441 268.07 200 277.928 200C287.786 200 295.754 197.441 301.539 192.322C307.334 187.203 311.472 179.842 313.964 170.245C316.447 160.649 317.693 149.216 317.693 135.936V63.7172C317.693 50.2784 316.447 38.846 313.964 29.4024ZM287.986 146.733C287.986 150.416 287.76 154.017 287.334 157.536C286.899 161.055 285.98 163.938 284.575 166.174C283.162 168.415 280.946 169.533 277.919 169.533C274.893 169.533 272.694 168.415 271.339 166.174C269.985 163.938 269.115 161.055 268.747 157.536C268.371 154.017 268.179 150.416 268.179 146.733V53.1557C268.179 49.3194 268.396 45.6831 268.831 42.241C269.257 38.8048 270.177 35.9688 271.59 33.727C272.995 31.4853 275.11 30.3673 277.919 30.3673C280.938 30.3673 283.162 31.4853 284.575 33.727C285.98 35.9688 286.891 38.8048 287.334 42.241C287.76 45.6831 287.986 49.3194 287.986 53.1557V146.733Z" fill="black" fill-opacity="0.2"/>
<path fill-rule="evenodd" clip-rule="evenodd" d="M313.964 29.4024C311.472 19.9705 307.334 12.7274 301.539 7.6908C295.754 2.6483 287.877 0.129996 277.928 0.129996C267.978 0.129996 260.286 2.6483 254.542 7.6908C248.806 12.7274 244.692 19.9705 242.209 29.4024C239.717 38.846 238.48 50.2784 238.48 63.7172V135.936C238.48 149.216 239.717 160.649 242.209 170.245C244.692 179.842 248.806 187.203 254.542 192.322C260.277 197.441 268.07 200 277.928 200C287.786 200 295.754 197.441 301.539 192.322C307.334 187.203 311.472 179.842 313.964 170.245C316.447 160.649 317.693 149.216 317.693 135.936V63.7172C317.693 50.2784 316.447 38.846 313.964 29.4024ZM287.986 146.733C287.986 150.416 287.76 154.017 287.334 157.536C286.899 161.055 285.98 163.938 284.575 166.174C283.162 168.415 280.946 169.533 277.919 169.533C274.893 169.533 272.694 168.415 271.339 166.174C269.985 163.938 269.115 161.055 268.747 157.536C268.371 154.017 268.179 150.416 268.179 146.733V53.1557C268.179 49.3194 268.396 45.6831 268.831 42.241C269.257 38.8048 270.177 35.9688 271.59 33.727C272.995 31.4853 275.11 30.3673 277.919 30.3673C280.938 30.3673 283.162 31.4853 284.575 33.727C285.98 35.9688 286.891 38.8048 287.334 42.241C287.76 45.6831 287.986 49.3194 287.986 53.1557V146.733Z" fill="black" fill-opacity="0.2"/>
<path d="M322.283 181H350V200H322.283V181Z" fill="#23233C"/>
<path d="M322.283 181H350V200H322.283V181Z" fill="black" fill-opacity="0.2"/>
<path d="M322.283 181H350V200H322.283V181Z" fill="black" fill-opacity="0.2"/>
<path d="M322.283 181H350V200H322.283V181Z" fill="black" fill-opacity="0.2"/>
</svg>
