<svg width="176" height="56" viewBox="0 0 176 56" fill="none" xmlns="http://www.w3.org/2000/svg">
<rect x="0.5" y="0.5" width="175" height="55" rx="27.5" stroke="#0422F5"/>
<rect x="0.5" y="0.5" width="175" height="55" rx="27.5" stroke="url(#paint0_linear_17_534)" stroke-opacity="0.2"/>
<path d="M31.7344 37V20.0312H37.7812C41.7188 20.0312 43.6641 22.2344 43.6641 25.3516C43.6641 27.6367 42.6328 29.3711 40.5703 30.1328L44.3203 37H41.3906L37.9453 30.6016H37.7812H34.3125V37H31.7344ZM34.3125 28.375H37.5234C40.0312 28.375 41.0625 27.2734 41.0625 25.3516C41.0625 23.4297 40.0312 22.2344 37.5234 22.2344H34.3125V28.375ZM46.2594 37V20.0312H56.9001V22.2578H48.8376V27.3906H56.3376V29.5938H48.8376V34.7734H56.9938V37H46.2594ZM69.0345 24.5078C68.8704 22.9375 67.4876 22.0234 65.5423 22.0234C63.4564 22.0234 62.1439 23.0781 62.1439 24.5312C62.1439 26.1484 63.9017 26.7578 65.2376 27.0859L66.8783 27.5312C69.0579 28.0469 71.7533 29.2422 71.7767 32.3125C71.7533 35.1719 69.4798 37.2812 65.472 37.2812C61.6751 37.2812 59.2845 35.3828 59.1204 32.2891H61.6986C61.8626 34.1406 63.4798 35.0312 65.472 35.0312C67.6283 35.0312 69.1986 33.9297 69.222 32.2656C69.1986 30.7891 67.8158 30.1797 66.0111 29.7109L63.9954 29.1719C61.2767 28.4219 59.5658 27.0391 59.5658 24.6719C59.5658 21.7422 62.1908 19.7969 65.6126 19.7969C69.0579 19.7969 71.472 21.7656 71.5423 24.5078H69.0345ZM85.1768 20.0312H87.7549V31.1875C87.7549 34.75 85.083 37.2812 81.0283 37.2812C76.9268 37.2812 74.2783 34.75 74.2783 31.1875V20.0312H76.8564V30.9766C76.8564 33.2734 78.4502 34.9375 81.0283 34.9375C83.583 34.9375 85.1768 33.2734 85.1768 30.9766V20.0312ZM90.9596 20.0312H94.1003L99.4674 33.1797H99.6784L105.046 20.0312H108.186V37H105.725V24.7422H105.561L100.592 36.9766H98.5534L93.5612 24.7188H93.4206V37H90.9596V20.0312ZM111.391 37V20.0312H122.032V22.2578H113.969V27.3906H121.469V29.5938H113.969V34.7734H122.125V37H111.391Z" fill="#0422F5"/>
<path d="M31.7344 37V20.0312H37.7812C41.7188 20.0312 43.6641 22.2344 43.6641 25.3516C43.6641 27.6367 42.6328 29.3711 40.5703 30.1328L44.3203 37H41.3906L37.9453 30.6016H37.7812H34.3125V37H31.7344ZM34.3125 28.375H37.5234C40.0312 28.375 41.0625 27.2734 41.0625 25.3516C41.0625 23.4297 40.0312 22.2344 37.5234 22.2344H34.3125V28.375ZM46.2594 37V20.0312H56.9001V22.2578H48.8376V27.3906H56.3376V29.5938H48.8376V34.7734H56.9938V37H46.2594ZM69.0345 24.5078C68.8704 22.9375 67.4876 22.0234 65.5423 22.0234C63.4564 22.0234 62.1439 23.0781 62.1439 24.5312C62.1439 26.1484 63.9017 26.7578 65.2376 27.0859L66.8783 27.5312C69.0579 28.0469 71.7533 29.2422 71.7767 32.3125C71.7533 35.1719 69.4798 37.2812 65.472 37.2812C61.6751 37.2812 59.2845 35.3828 59.1204 32.2891H61.6986C61.8626 34.1406 63.4798 35.0312 65.472 35.0312C67.6283 35.0312 69.1986 33.9297 69.222 32.2656C69.1986 30.7891 67.8158 30.1797 66.0111 29.7109L63.9954 29.1719C61.2767 28.4219 59.5658 27.0391 59.5658 24.6719C59.5658 21.7422 62.1908 19.7969 65.6126 19.7969C69.0579 19.7969 71.472 21.7656 71.5423 24.5078H69.0345ZM85.1768 20.0312H87.7549V31.1875C87.7549 34.75 85.083 37.2812 81.0283 37.2812C76.9268 37.2812 74.2783 34.75 74.2783 31.1875V20.0312H76.8564V30.9766C76.8564 33.2734 78.4502 34.9375 81.0283 34.9375C83.583 34.9375 85.1768 33.2734 85.1768 30.9766V20.0312ZM90.9596 20.0312H94.1003L99.4674 33.1797H99.6784L105.046 20.0312H108.186V37H105.725V24.7422H105.561L100.592 36.9766H98.5534L93.5612 24.7188H93.4206V37H90.9596V20.0312ZM111.391 37V20.0312H122.032V22.2578H113.969V27.3906H121.469V29.5938H113.969V34.7734H122.125V37H111.391Z" fill="url(#paint1_linear_17_534)" fill-opacity="0.2"/>
<path d="M134 25L140 31L146 25" stroke="#0422F5" stroke-width="2" stroke-linecap="round" stroke-linejoin="round"/>
<path d="M134 25L140 31L146 25" stroke="url(#paint2_linear_17_534)" stroke-opacity="0.2" stroke-width="2" stroke-linecap="round" stroke-linejoin="round"/>
<defs>
<linearGradient id="paint0_linear_17_534" x1="88" y1="0" x2="88" y2="56" gradientUnits="userSpaceOnUse">
<stop stop-color="#0422F5" stop-opacity="0"/>
<stop offset="0.5" stop-color="#0422F5"/>
<stop offset="1" stop-color="#0422F5" stop-opacity="0"/>
</linearGradient>
<linearGradient id="paint1_linear_17_534" x1="77" y1="10" x2="77" y2="46" gradientUnits="userSpaceOnUse">
<stop stop-color="#0422F5" stop-opacity="0"/>
<stop offset="0.5" stop-color="#0422F5"/>
<stop offset="1" stop-color="#0422F5" stop-opacity="0"/>
</linearGradient>
<linearGradient id="paint2_linear_17_534" x1="146" y1="28" x2="134" y2="28" gradientUnits="userSpaceOnUse">
<stop stop-color="#0422F5" stop-opacity="0"/>
<stop offset="0.5" stop-color="#0422F5"/>
<stop offset="1" stop-color="#0422F5" stop-opacity="0"/>
</linearGradient>
</defs>
</svg>
