<svg width="176" height="56" viewBox="0 0 176 56" fill="none" xmlns="http://www.w3.org/2000/svg">
<rect x="0.5" y="0.5" width="175" height="55" rx="27.5" stroke="#0422F5"/>
<rect x="0.5" y="0.5" width="175" height="55" rx="27.5" stroke="url(#paint0_linear_17_516)" stroke-opacity="0.2"/>
<path d="M34.7344 37V20.0312H40.7812C44.7188 20.0312 46.6641 22.2344 46.6641 25.3516C46.6641 27.6367 45.6328 29.3711 43.5703 30.1328L47.3203 37H44.3906L40.9453 30.6016H40.7812H37.3125V37H34.7344ZM37.3125 28.375H40.5234C43.0312 28.375 44.0625 27.2734 44.0625 25.3516C44.0625 23.4297 43.0312 22.2344 40.5234 22.2344H37.3125V28.375ZM49.2594 37V20.0312H59.9001V22.2578H51.8376V27.3906H59.3376V29.5938H51.8376V34.7734H59.9938V37H49.2594ZM72.0345 24.5078C71.8704 22.9375 70.4876 22.0234 68.5423 22.0234C66.4564 22.0234 65.1439 23.0781 65.1439 24.5312C65.1439 26.1484 66.9017 26.7578 68.2376 27.0859L69.8783 27.5312C72.0579 28.0469 74.7533 29.2422 74.7767 32.3125C74.7533 35.1719 72.4798 37.2812 68.472 37.2812C64.6751 37.2812 62.2845 35.3828 62.1204 32.2891H64.6986C64.8626 34.1406 66.4798 35.0312 68.472 35.0312C70.6283 35.0312 72.1986 33.9297 72.222 32.2656C72.1986 30.7891 70.8158 30.1797 69.0111 29.7109L66.9954 29.1719C64.2767 28.4219 62.5658 27.0391 62.5658 24.6719C62.5658 21.7422 65.1908 19.7969 68.6126 19.7969C72.0579 19.7969 74.472 21.7656 74.5423 24.5078H72.0345ZM88.1768 20.0312H90.7549V31.1875C90.7549 34.75 88.083 37.2812 84.0283 37.2812C79.9268 37.2812 77.2783 34.75 77.2783 31.1875V20.0312H79.8564V30.9766C79.8564 33.2734 81.4502 34.9375 84.0283 34.9375C86.583 34.9375 88.1768 33.2734 88.1768 30.9766V20.0312ZM93.9596 20.0312H97.1003L102.467 33.1797H102.678L108.046 20.0312H111.186V37H108.725V24.7422H108.561L103.592 36.9766H101.553L96.5612 24.7188H96.4206V37H93.9596V20.0312ZM114.391 37V20.0312H125.032V22.2578H116.969V27.3906H124.469V29.5938H116.969V34.7734H125.125V37H114.391Z" fill="#0422F5"/>
<path d="M34.7344 37V20.0312H40.7812C44.7188 20.0312 46.6641 22.2344 46.6641 25.3516C46.6641 27.6367 45.6328 29.3711 43.5703 30.1328L47.3203 37H44.3906L40.9453 30.6016H40.7812H37.3125V37H34.7344ZM37.3125 28.375H40.5234C43.0312 28.375 44.0625 27.2734 44.0625 25.3516C44.0625 23.4297 43.0312 22.2344 40.5234 22.2344H37.3125V28.375ZM49.2594 37V20.0312H59.9001V22.2578H51.8376V27.3906H59.3376V29.5938H51.8376V34.7734H59.9938V37H49.2594ZM72.0345 24.5078C71.8704 22.9375 70.4876 22.0234 68.5423 22.0234C66.4564 22.0234 65.1439 23.0781 65.1439 24.5312C65.1439 26.1484 66.9017 26.7578 68.2376 27.0859L69.8783 27.5312C72.0579 28.0469 74.7533 29.2422 74.7767 32.3125C74.7533 35.1719 72.4798 37.2812 68.472 37.2812C64.6751 37.2812 62.2845 35.3828 62.1204 32.2891H64.6986C64.8626 34.1406 66.4798 35.0312 68.472 35.0312C70.6283 35.0312 72.1986 33.9297 72.222 32.2656C72.1986 30.7891 70.8158 30.1797 69.0111 29.7109L66.9954 29.1719C64.2767 28.4219 62.5658 27.0391 62.5658 24.6719C62.5658 21.7422 65.1908 19.7969 68.6126 19.7969C72.0579 19.7969 74.472 21.7656 74.5423 24.5078H72.0345ZM88.1768 20.0312H90.7549V31.1875C90.7549 34.75 88.083 37.2812 84.0283 37.2812C79.9268 37.2812 77.2783 34.75 77.2783 31.1875V20.0312H79.8564V30.9766C79.8564 33.2734 81.4502 34.9375 84.0283 34.9375C86.583 34.9375 88.1768 33.2734 88.1768 30.9766V20.0312ZM93.9596 20.0312H97.1003L102.467 33.1797H102.678L108.046 20.0312H111.186V37H108.725V24.7422H108.561L103.592 36.9766H101.553L96.5612 24.7188H96.4206V37H93.9596V20.0312ZM114.391 37V20.0312H125.032V22.2578H116.969V27.3906H124.469V29.5938H116.969V34.7734H125.125V37H114.391Z" fill="url(#paint1_linear_17_516)" fill-opacity="0.2"/>
<path d="M137 34L143 28L137 22" stroke="#0422F5" stroke-width="2" stroke-linecap="round" stroke-linejoin="round"/>
<path d="M137 34L143 28L137 22" stroke="url(#paint2_linear_17_516)" stroke-opacity="0.2" stroke-width="2" stroke-linecap="round" stroke-linejoin="round"/>
<defs>
<linearGradient id="paint0_linear_17_516" x1="88" y1="0" x2="88" y2="56" gradientUnits="userSpaceOnUse">
<stop stop-color="#0422F5" stop-opacity="0"/>
<stop offset="0.5" stop-color="#0422F5"/>
<stop offset="1" stop-color="#0422F5" stop-opacity="0"/>
</linearGradient>
<linearGradient id="paint1_linear_17_516" x1="80" y1="10" x2="80" y2="46" gradientUnits="userSpaceOnUse">
<stop stop-color="#0422F5" stop-opacity="0"/>
<stop offset="0.5" stop-color="#0422F5"/>
<stop offset="1" stop-color="#0422F5" stop-opacity="0"/>
</linearGradient>
<linearGradient id="paint2_linear_17_516" x1="140" y1="22" x2="140" y2="34" gradientUnits="userSpaceOnUse">
<stop stop-color="#0422F5" stop-opacity="0"/>
<stop offset="0.5" stop-color="#0422F5"/>
<stop offset="1" stop-color="#0422F5" stop-opacity="0"/>
</linearGradient>
</defs>
</svg>
