<svg width="100" height="34" viewBox="0 0 100 34" fill="none" xmlns="http://www.w3.org/2000/svg">
<rect width="100" height="34" rx="17" fill="white"/>
<path d="M22.7953 9.85938L26.7211 21.3633H26.8773L30.8031 9.85938H33.1273L28.0297 24H25.5492L20.4711 9.85938H22.7953ZM34.3484 24V13.3945H36.4383V24H34.3484ZM35.4031 11.7539C34.6805 11.7539 34.075 11.207 34.075 10.5234C34.075 9.83984 34.6805 9.29297 35.4031 9.29297C36.1063 9.29297 36.7117 9.83984 36.7117 10.5234C36.7117 11.207 36.1063 11.7539 35.4031 11.7539ZM43.1477 24.2148C40.0227 24.2148 38.1086 22.0664 38.1086 18.7656C38.1086 15.5039 40.0617 13.2578 43.0109 13.2578C45.4328 13.2578 47.718 14.7617 47.718 18.5898V19.332H40.1789C40.2375 21.3438 41.4191 22.4961 43.1672 22.4961C44.3586 22.4961 45.1203 21.9883 45.4719 21.3438H47.5813C47.1125 23.0625 45.4719 24.2148 43.1477 24.2148ZM40.1984 17.7695H45.6672C45.6672 16.1484 44.632 14.9766 43.0305 14.9766C41.3605 14.9766 40.2766 16.2656 40.1984 17.7695ZM51.6344 24L48.5289 13.3945H50.6773L52.7477 21.168H52.8648L54.9352 13.3945H57.0836L59.1344 21.1289H59.2516L61.3023 13.3945H63.4508L60.3453 24H58.2164L56.068 16.3633H55.9117L53.7828 24H51.6344Z" fill="#23233C"/>
<path d="M22.7953 9.85938L26.7211 21.3633H26.8773L30.8031 9.85938H33.1273L28.0297 24H25.5492L20.4711 9.85938H22.7953ZM34.3484 24V13.3945H36.4383V24H34.3484ZM35.4031 11.7539C34.6805 11.7539 34.075 11.207 34.075 10.5234C34.075 9.83984 34.6805 9.29297 35.4031 9.29297C36.1063 9.29297 36.7117 9.83984 36.7117 10.5234C36.7117 11.207 36.1063 11.7539 35.4031 11.7539ZM43.1477 24.2148C40.0227 24.2148 38.1086 22.0664 38.1086 18.7656C38.1086 15.5039 40.0617 13.2578 43.0109 13.2578C45.4328 13.2578 47.718 14.7617 47.718 18.5898V19.332H40.1789C40.2375 21.3438 41.4191 22.4961 43.1672 22.4961C44.3586 22.4961 45.1203 21.9883 45.4719 21.3438H47.5813C47.1125 23.0625 45.4719 24.2148 43.1477 24.2148ZM40.1984 17.7695H45.6672C45.6672 16.1484 44.632 14.9766 43.0305 14.9766C41.3605 14.9766 40.2766 16.2656 40.1984 17.7695ZM51.6344 24L48.5289 13.3945H50.6773L52.7477 21.168H52.8648L54.9352 13.3945H57.0836L59.1344 21.1289H59.2516L61.3023 13.3945H63.4508L60.3453 24H58.2164L56.068 16.3633H55.9117L53.7828 24H51.6344Z" fill="black" fill-opacity="0.2"/>
<path d="M22.7953 9.85938L26.7211 21.3633H26.8773L30.8031 9.85938H33.1273L28.0297 24H25.5492L20.4711 9.85938H22.7953ZM34.3484 24V13.3945H36.4383V24H34.3484ZM35.4031 11.7539C34.6805 11.7539 34.075 11.207 34.075 10.5234C34.075 9.83984 34.6805 9.29297 35.4031 9.29297C36.1063 9.29297 36.7117 9.83984 36.7117 10.5234C36.7117 11.207 36.1063 11.7539 35.4031 11.7539ZM43.1477 24.2148C40.0227 24.2148 38.1086 22.0664 38.1086 18.7656C38.1086 15.5039 40.0617 13.2578 43.0109 13.2578C45.4328 13.2578 47.718 14.7617 47.718 18.5898V19.332H40.1789C40.2375 21.3438 41.4191 22.4961 43.1672 22.4961C44.3586 22.4961 45.1203 21.9883 45.4719 21.3438H47.5813C47.1125 23.0625 45.4719 24.2148 43.1477 24.2148ZM40.1984 17.7695H45.6672C45.6672 16.1484 44.632 14.9766 43.0305 14.9766C41.3605 14.9766 40.2766 16.2656 40.1984 17.7695ZM51.6344 24L48.5289 13.3945H50.6773L52.7477 21.168H52.8648L54.9352 13.3945H57.0836L59.1344 21.1289H59.2516L61.3023 13.3945H63.4508L60.3453 24H58.2164L56.068 16.3633H55.9117L53.7828 24H51.6344Z" fill="black" fill-opacity="0.2"/>
<path d="M22.7953 9.85938L26.7211 21.3633H26.8773L30.8031 9.85938H33.1273L28.0297 24H25.5492L20.4711 9.85938H22.7953ZM34.3484 24V13.3945H36.4383V24H34.3484ZM35.4031 11.7539C34.6805 11.7539 34.075 11.207 34.075 10.5234C34.075 9.83984 34.6805 9.29297 35.4031 9.29297C36.1063 9.29297 36.7117 9.83984 36.7117 10.5234C36.7117 11.207 36.1063 11.7539 35.4031 11.7539ZM43.1477 24.2148C40.0227 24.2148 38.1086 22.0664 38.1086 18.7656C38.1086 15.5039 40.0617 13.2578 43.0109 13.2578C45.4328 13.2578 47.718 14.7617 47.718 18.5898V19.332H40.1789C40.2375 21.3438 41.4191 22.4961 43.1672 22.4961C44.3586 22.4961 45.1203 21.9883 45.4719 21.3438H47.5813C47.1125 23.0625 45.4719 24.2148 43.1477 24.2148ZM40.1984 17.7695H45.6672C45.6672 16.1484 44.632 14.9766 43.0305 14.9766C41.3605 14.9766 40.2766 16.2656 40.1984 17.7695ZM51.6344 24L48.5289 13.3945H50.6773L52.7477 21.168H52.8648L54.9352 13.3945H57.0836L59.1344 21.1289H59.2516L61.3023 13.3945H63.4508L60.3453 24H58.2164L56.068 16.3633H55.9117L53.7828 24H51.6344Z" fill="black" fill-opacity="0.2"/>
<path d="M74 23L80 17L74 11" stroke="#23233C" stroke-width="2" stroke-linecap="round" stroke-linejoin="round"/>
<path d="M74 23L80 17L74 11" stroke="black" stroke-opacity="0.2" stroke-width="2" stroke-linecap="round" stroke-linejoin="round"/>
<path d="M74 23L80 17L74 11" stroke="black" stroke-opacity="0.2" stroke-width="2" stroke-linecap="round" stroke-linejoin="round"/>
<path d="M74 23L80 17L74 11" stroke="black" stroke-opacity="0.2" stroke-width="2" stroke-linecap="round" stroke-linejoin="round"/>
</svg>
