<svg width="211" height="56" viewBox="0 0 211 56" fill="none" xmlns="http://www.w3.org/2000/svg">
<rect x="0.5" y="0.5" width="210" height="55" rx="27.5" stroke="#0422F5"/>
<rect x="0.5" y="0.5" width="210" height="55" rx="27.5" stroke="url(#paint0_linear_32_283)" stroke-opacity="0.2"/>
<path d="M63.2188 25.5625C62.7969 23.3828 60.9922 22.1641 58.8359 22.1641C55.9062 22.1641 53.7266 24.4141 53.7266 28.5156C53.7266 32.6406 55.9297 34.8672 58.8359 34.8672C60.9688 34.8672 62.7734 33.6719 63.2188 31.5156L65.8203 31.5391C65.2812 34.8906 62.5391 37.2344 58.8125 37.2344C54.3828 37.2344 51.1719 33.9297 51.1719 28.5156C51.1719 23.0781 54.4062 19.7969 58.8125 19.7969C62.3984 19.7969 65.2344 21.9062 65.8203 25.5625H63.2188ZM83.0876 28.5156C83.0876 33.9297 79.8298 37.2344 75.4469 37.2344C71.0173 37.2344 67.7829 33.9297 67.7829 28.5156C67.7829 23.0781 71.0173 19.7969 75.4469 19.7969C79.8298 19.7969 83.0876 23.0781 83.0876 28.5156ZM80.5329 28.5156C80.5329 24.3906 78.3532 22.1641 75.4469 22.1641C72.5173 22.1641 70.3376 24.3906 70.3376 28.5156C70.3376 32.6406 72.5173 34.8672 75.4469 34.8672C78.3532 34.8672 80.5329 32.6406 80.5329 28.5156ZM99.4173 20.0312V37H97.0501L88.4486 24.6016H88.3079V37H85.7298V20.0312H88.1204L96.722 32.4531H96.8861V20.0312H99.4173ZM101.778 22.2578V20.0312H114.927V22.2578H109.653V37H107.075V22.2578H101.778ZM116.702 37H113.96L120.053 20.0312H123.03L129.147 37H126.405L124.858 32.5234H118.249L116.702 37ZM118.999 30.3672H124.108L121.6 23.125H121.483L118.999 30.3672ZM141.727 25.5625C141.305 23.3828 139.5 22.1641 137.344 22.1641C134.414 22.1641 132.235 24.4141 132.235 28.5156C132.235 32.6406 134.438 34.8672 137.344 34.8672C139.477 34.8672 141.282 33.6719 141.727 31.5156L144.328 31.5391C143.789 34.8906 141.047 37.2344 137.321 37.2344C132.891 37.2344 129.68 33.9297 129.68 28.5156C129.68 23.0781 132.914 19.7969 137.321 19.7969C140.907 19.7969 143.743 21.9062 144.328 25.5625H141.727ZM146.01 22.2578V20.0312H159.158V22.2578H153.885V37H151.307V22.2578H146.01Z" fill="#0422F5"/>
<defs>
<linearGradient id="paint0_linear_32_283" x1="105.5" y1="0" x2="105.5" y2="56" gradientUnits="userSpaceOnUse">
<stop stop-color="#0422F5" stop-opacity="0"/>
<stop offset="0.5" stop-color="#0422F5"/>
<stop offset="1" stop-color="#0422F5" stop-opacity="0"/>
</linearGradient>
</defs>
</svg>
