<svg width="151" height="44" viewBox="0 0 151 44" fill="none" xmlns="http://www.w3.org/2000/svg">
<rect x="0.5" y="0.5" width="150" height="43" rx="21.5" stroke="#0422F5"/>
<rect x="0.5" y="0.5" width="150" height="43" rx="21.5" stroke="url(#paint0_linear_3_49)" stroke-opacity="0.2"/>
<path d="M41.0156 19.4688C40.6641 17.6523 39.1602 16.6367 37.3633 16.6367C34.9219 16.6367 33.1055 18.5117 33.1055 21.9297C33.1055 25.3672 34.9414 27.2227 37.3633 27.2227C39.1406 27.2227 40.6445 26.2266 41.0156 24.4297L43.1836 24.4492C42.7344 27.2422 40.4492 29.1953 37.3438 29.1953C33.6523 29.1953 30.9766 26.4414 30.9766 21.9297C30.9766 17.3984 33.6719 14.6641 37.3438 14.6641C40.332 14.6641 42.6953 16.4219 43.1836 19.4688H41.0156ZM57.393 21.9297C57.393 26.4414 54.6781 29.1953 51.0258 29.1953C47.3344 29.1953 44.6391 26.4414 44.6391 21.9297C44.6391 17.3984 47.3344 14.6641 51.0258 14.6641C54.6781 14.6641 57.393 17.3984 57.393 21.9297ZM55.2641 21.9297C55.2641 18.4922 53.4477 16.6367 51.0258 16.6367C48.5844 16.6367 46.768 18.4922 46.768 21.9297C46.768 25.3672 48.5844 27.2227 51.0258 27.2227C53.4477 27.2227 55.2641 25.3672 55.2641 21.9297ZM70.8211 14.8594V29H68.8484L61.6805 18.668H61.5633V29H59.4148V14.8594H61.407L68.575 25.2109H68.7117V14.8594H70.8211ZM72.6086 16.7148V14.8594H83.5656V16.7148H79.1711V29H77.0227V16.7148H72.6086ZM84.8648 29H82.5797L87.6578 14.8594H90.1383L95.2359 29H92.9508L91.6617 25.2695H86.1539L84.8648 29ZM86.7789 23.4727H91.0367L88.9469 17.4375H88.8492L86.7789 23.4727ZM105.539 19.4688C105.188 17.6523 103.684 16.6367 101.887 16.6367C99.4453 16.6367 97.6289 18.5117 97.6289 21.9297C97.6289 25.3672 99.4648 27.2227 101.887 27.2227C103.664 27.2227 105.168 26.2266 105.539 24.4297L107.707 24.4492C107.258 27.2422 104.973 29.1953 101.867 29.1953C98.1758 29.1953 95.5 26.4414 95.5 21.9297C95.5 17.3984 98.1953 14.6641 101.867 14.6641C104.855 14.6641 107.219 16.4219 107.707 19.4688H105.539ZM108.928 16.7148V14.8594H119.885V16.7148H115.491V29H113.342V16.7148H108.928Z" fill="#0422F5"/>
<path d="M41.0156 19.4688C40.6641 17.6523 39.1602 16.6367 37.3633 16.6367C34.9219 16.6367 33.1055 18.5117 33.1055 21.9297C33.1055 25.3672 34.9414 27.2227 37.3633 27.2227C39.1406 27.2227 40.6445 26.2266 41.0156 24.4297L43.1836 24.4492C42.7344 27.2422 40.4492 29.1953 37.3438 29.1953C33.6523 29.1953 30.9766 26.4414 30.9766 21.9297C30.9766 17.3984 33.6719 14.6641 37.3438 14.6641C40.332 14.6641 42.6953 16.4219 43.1836 19.4688H41.0156ZM57.393 21.9297C57.393 26.4414 54.6781 29.1953 51.0258 29.1953C47.3344 29.1953 44.6391 26.4414 44.6391 21.9297C44.6391 17.3984 47.3344 14.6641 51.0258 14.6641C54.6781 14.6641 57.393 17.3984 57.393 21.9297ZM55.2641 21.9297C55.2641 18.4922 53.4477 16.6367 51.0258 16.6367C48.5844 16.6367 46.768 18.4922 46.768 21.9297C46.768 25.3672 48.5844 27.2227 51.0258 27.2227C53.4477 27.2227 55.2641 25.3672 55.2641 21.9297ZM70.8211 14.8594V29H68.8484L61.6805 18.668H61.5633V29H59.4148V14.8594H61.407L68.575 25.2109H68.7117V14.8594H70.8211ZM72.6086 16.7148V14.8594H83.5656V16.7148H79.1711V29H77.0227V16.7148H72.6086ZM84.8648 29H82.5797L87.6578 14.8594H90.1383L95.2359 29H92.9508L91.6617 25.2695H86.1539L84.8648 29ZM86.7789 23.4727H91.0367L88.9469 17.4375H88.8492L86.7789 23.4727ZM105.539 19.4688C105.188 17.6523 103.684 16.6367 101.887 16.6367C99.4453 16.6367 97.6289 18.5117 97.6289 21.9297C97.6289 25.3672 99.4648 27.2227 101.887 27.2227C103.664 27.2227 105.168 26.2266 105.539 24.4297L107.707 24.4492C107.258 27.2422 104.973 29.1953 101.867 29.1953C98.1758 29.1953 95.5 26.4414 95.5 21.9297C95.5 17.3984 98.1953 14.6641 101.867 14.6641C104.855 14.6641 107.219 16.4219 107.707 19.4688H105.539ZM108.928 16.7148V14.8594H119.885V16.7148H115.491V29H113.342V16.7148H108.928Z" fill="url(#paint1_linear_3_49)" fill-opacity="0.2"/>
<defs>
<linearGradient id="paint0_linear_3_49" x1="75.5" y1="0" x2="75.5" y2="44" gradientUnits="userSpaceOnUse">
<stop stop-color="#0422F5" stop-opacity="0"/>
<stop offset="0.5" stop-color="#0422F5"/>
<stop offset="1" stop-color="#0422F5" stop-opacity="0"/>
</linearGradient>
<linearGradient id="paint1_linear_3_49" x1="75.5" y1="10" x2="75.5" y2="34" gradientUnits="userSpaceOnUse">
<stop stop-color="#0422F5" stop-opacity="0"/>
<stop offset="0.5" stop-color="#0422F5"/>
<stop offset="1" stop-color="#0422F5" stop-opacity="0"/>
</linearGradient>
</defs>
</svg>
