<svg width="111" height="26" viewBox="0 0 111 26" fill="none" xmlns="http://www.w3.org/2000/svg">
<path d="M-2.36225e-07 3.2021L-1.95e-06 22.8054C-2.08022e-06 24.2949 1.27004 25.5075 2.83491 25.5075L97.8762 25.5075C101.505 25.5075 104.786 24.1078 107.16 21.8473C109.601 19.5195 111.083 16.2785 111 12.7156C110.834 5.88175 104.786 0.500009 97.6116 0.500009L42.312 0.500004C40.5203 0.500004 38.8874 1.46557 38.0861 2.98503L28.0543 22.0868C27.6083 22.9401 26.2626 22.6332 26.2626 21.6901L26.2626 3.2021C26.2626 1.71258 24.9926 0.500002 23.4277 0.500002L2.83491 0.5C1.27004 0.5 -1.06007e-07 1.71257 -2.36225e-07 3.2021Z" fill="#23233C"/>
<path d="M-2.36225e-07 3.2021L-1.95e-06 22.8054C-2.08022e-06 24.2949 1.27004 25.5075 2.83491 25.5075L97.8762 25.5075C101.505 25.5075 104.786 24.1078 107.16 21.8473C109.601 19.5195 111.083 16.2785 111 12.7156C110.834 5.88175 104.786 0.500009 97.6116 0.500009L42.312 0.500004C40.5203 0.500004 38.8874 1.46557 38.0861 2.98503L28.0543 22.0868C27.6083 22.9401 26.2626 22.6332 26.2626 21.6901L26.2626 3.2021C26.2626 1.71258 24.9926 0.500002 23.4277 0.500002L2.83491 0.5C1.27004 0.5 -1.06007e-07 1.71257 -2.36225e-07 3.2021Z" fill="black" fill-opacity="0.2"/>
<path d="M-2.36225e-07 3.2021L-1.95e-06 22.8054C-2.08022e-06 24.2949 1.27004 25.5075 2.83491 25.5075L97.8762 25.5075C101.505 25.5075 104.786 24.1078 107.16 21.8473C109.601 19.5195 111.083 16.2785 111 12.7156C110.834 5.88175 104.786 0.500009 97.6116 0.500009L42.312 0.500004C40.5203 0.500004 38.8874 1.46557 38.0861 2.98503L28.0543 22.0868C27.6083 22.9401 26.2626 22.6332 26.2626 21.6901L26.2626 3.2021C26.2626 1.71258 24.9926 0.500002 23.4277 0.500002L2.83491 0.5C1.27004 0.5 -1.06007e-07 1.71257 -2.36225e-07 3.2021Z" fill="black" fill-opacity="0.2"/>
<path d="M-2.36225e-07 3.2021L-1.95e-06 22.8054C-2.08022e-06 24.2949 1.27004 25.5075 2.83491 25.5075L97.8762 25.5075C101.505 25.5075 104.786 24.1078 107.16 21.8473C109.601 19.5195 111.083 16.2785 111 12.7156C110.834 5.88175 104.786 0.500009 97.6116 0.500009L42.312 0.500004C40.5203 0.500004 38.8874 1.46557 38.0861 2.98503L28.0543 22.0868C27.6083 22.9401 26.2626 22.6332 26.2626 21.6901L26.2626 3.2021C26.2626 1.71258 24.9926 0.500002 23.4277 0.500002L2.83491 0.5C1.27004 0.5 -1.06007e-07 1.71257 -2.36225e-07 3.2021Z" fill="black" fill-opacity="0.2"/>
</svg>
